<?xml version="1.0" encoding="utf-8"?>
<!-- Generator: Adobe Illustrator 17.1.0, SVG Export Plug-In . SVG Version: 6.00 Build 0)  -->
<!DOCTYPE svg PUBLIC "-//W3C//DTD SVG 1.1//EN" "http://www.w3.org/Graphics/SVG/1.1/DTD/svg11.dtd">
<svg version="1.1" id="Layer_1" xmlns="http://www.w3.org/2000/svg" xmlns:xlink="http://www.w3.org/1999/xlink" x="0px" y="0px"
	 viewBox="0 0 378.8 273.3" enable-background="new 0 0 378.8 273.3" xml:space="preserve">
<g display="none">
	<g display="inline">
		<g>
			<linearGradient id="SVGID_1_" gradientUnits="userSpaceOnUse" x1="-908.6932" y1="260.5609" x2="-753.9174" y2="140.4924">
				<stop  offset="0" style="stop-color:#9C7FB0"/>
				<stop  offset="1" style="stop-color:#797B92"/>
			</linearGradient>
			<path fill="url(#SVGID_1_)" d="M-726.8,273.3h-51c-4.8,0-8.8-3.9-8.8-8.8V68.8h-32.3c-2.9,0-5.6-1.4-7.3-3.9
				c-1.6-2.4-2-5.5-0.9-8.2C-813.1,22.3-780.1,0-743,0h16.1c4.8,0,8.8,3.9,8.8,8.8v78.9c0,4.8-3.9,8.8-8.8,8.8s-8.8-3.9-8.8-8.8
				V17.5h-7.4c-25.4,0-48.4,12.9-61.6,33.8h26.7c4.8,0,8.8,3.9,8.8,8.8v195.7h33.4v-97.9c0-4.8,3.9-8.8,8.8-8.8s8.8,3.9,8.8,8.8
				v106.7C-718.1,269.4-722,273.3-726.8,273.3z"/>
		</g>
	</g>
	<g display="inline">
		<g>
			<linearGradient id="SVGID_2_" gradientUnits="userSpaceOnUse" x1="-1196.0573" y1="332.061" x2="-1041.2814" y2="211.9925">
				<stop  offset="0" style="stop-color:#9C7FB0"/>
				<stop  offset="1" style="stop-color:#797B92"/>
			</linearGradient>
			<path fill="url(#SVGID_2_)" d="M-944.3,273.3c-12.4,0-24.2-2.4-35.1-7.1c-10.8-4.7-20.5-11.2-28.7-19.4
				c-8.2-8.2-14.7-17.8-19.4-28.7c-4.7-10.9-7.1-22.8-7.1-35.2V90.8c0-12.4,2.4-24.3,7.1-35.3c4.7-11,11.2-20.7,19.4-28.9
				c8.2-8.2,17.8-14.7,28.7-19.4c10.9-4.7,22.8-7.1,35.1-7.1c12.4,0,24.2,2.4,35.3,7.1c6.6,2.8,12.7,6.3,18.3,10.4c0,0,0,0,0,0
				c1.5,1.1,2.9,2.2,4.3,3.3c3.7,3.1,4.2,8.6,1.2,12.3c-3.1,3.7-8.6,4.2-12.3,1.2c-1.1-0.9-2.3-1.8-3.4-2.7c0,0,0,0,0,0
				c-4.5-3.3-9.5-6.1-14.9-8.4c-8.9-3.8-18.4-5.7-28.4-5.7c-10,0-19.4,1.9-28.2,5.7c-8.8,3.8-16.6,9.1-23.2,15.7
				c-6.6,6.6-11.8,14.5-15.7,23.4c-3.8,8.9-5.7,18.4-5.7,28.5v92.1c0,10,1.9,19.5,5.7,28.3c3.8,8.8,9.1,16.7,15.7,23.3
				c6.6,6.6,14.4,11.9,23.2,15.7c8.7,3.8,18.2,5.7,28.2,5.7c10,0,19.5-1.9,28.4-5.7c8.9-3.8,16.8-9.1,23.3-15.7
				c6.6-6.6,11.9-14.4,15.7-23.3c3.8-8.8,5.7-18.3,5.7-28.3V90.8c0-8.8-1.5-17.3-4.4-25.3c-1.7-4.5,0.6-9.6,5.2-11.2
				c4.5-1.7,9.6,0.6,11.2,5.2c3.7,9.9,5.5,20.4,5.5,31.3v92.1c0,12.4-2.4,24.2-7.1,35.2c-4.7,10.9-11.2,20.5-19.3,28.7
				c-8.2,8.2-17.9,14.7-28.9,19.4C-920.1,270.9-932,273.3-944.3,273.3z M-944.1,222c-10.9,0-20.3-3.9-27.9-11.5
				c-2.9-2.9-5.2-6-7.1-9.4c-2.3-4.3-0.7-9.6,3.6-11.8c4.3-2.3,9.6-0.7,11.8,3.6c1,1.9,2.3,3.6,4,5.3c4.3,4.3,9.4,6.4,15.6,6.4
				c3.1,0,5.9-0.5,8.6-1.7c2.7-1.1,5-2.7,7-4.7c2-2,3.6-4.3,4.7-7c1.1-2.6,1.7-5.4,1.7-8.5V90.7c0-3.1-0.5-5.9-1.7-8.5
				c-1.1-2.7-2.7-5-4.7-7c-2-2-4.3-3.6-7-4.7c-2.6-1.1-5.4-1.7-8.6-1.7c-6.2,0-11.3,2.1-15.6,6.4c-4.3,4.3-6.4,9.4-6.4,15.5v29.7
				c0,4.8-3.9,8.8-8.8,8.8c-4.8,0-8.8-3.9-8.8-8.8V90.7c0-10.9,3.9-20.3,11.5-27.9c7.6-7.6,17-11.5,27.9-11.5c5.4,0,10.6,1,15.4,3
				c4.7,2,8.9,4.8,12.6,8.4c3.6,3.6,6.4,7.8,8.5,12.5c2,4.8,3.1,10,3.1,15.4v91.9c0,5.4-1,10.6-3.1,15.4c-2,4.7-4.9,9-8.5,12.5
				c-3.6,3.6-7.8,6.4-12.6,8.4C-933.5,221-938.7,222-944.1,222z"/>
		</g>
	</g>
</g>
<g display="none">
	<g display="inline">
		<g>
			<linearGradient id="SVGID_3_" gradientUnits="userSpaceOnUse" x1="-698.4255" y1="395.4157" x2="-569.9147" y2="273.4712">
				<stop  offset="0" style="stop-color:#9C7FB0"/>
				<stop  offset="1" style="stop-color:#797B92"/>
			</linearGradient>
			<path fill="url(#SVGID_3_)" d="M-425.6,273.3c-12.4,0-24.2-2.4-35.3-7.1c-6.6-2.8-12.7-6.3-18.3-10.4c0,0,0,0,0,0
				c-1.5-1.1-2.9-2.2-4.3-3.3c-3.7-3.1-4.2-8.6-1.2-12.3c3.1-3.7,8.6-4.2,12.3-1.2c1.1,0.9,2.3,1.8,3.4,2.7c0,0,0,0,0,0
				c4.5,3.3,9.5,6.1,14.9,8.4c8.9,3.8,18.4,5.7,28.4,5.7c10,0,19.4-1.9,28.2-5.7c8.8-3.8,16.6-9.1,23.2-15.7
				c6.6-6.6,11.8-14.5,15.7-23.4c3.8-8.9,5.7-18.4,5.7-28.5V90.4c0-10-1.9-19.5-5.7-28.3c-3.8-8.8-9.1-16.7-15.7-23.3
				c-6.6-6.6-14.4-11.9-23.2-15.7c-8.7-3.8-18.2-5.7-28.2-5.7c-10,0-19.5,1.9-28.4,5.7c-8.9,3.8-16.8,9.1-23.3,15.7
				c-6.6,6.6-11.9,14.4-15.7,23.3c-3.8,8.8-5.7,18.3-5.7,28.3v92.1c0,8.8,1.5,17.3,4.4,25.3c1.7,4.5-0.6,9.6-5.2,11.2
				c-4.5,1.7-9.6-0.6-11.2-5.2c-3.7-9.9-5.5-20.4-5.5-31.3V90.4c0-12.4,2.4-24.2,7.1-35.2c4.7-10.9,11.2-20.5,19.3-28.7
				c8.2-8.2,17.9-14.7,28.9-19.4c11-4.7,22.9-7.1,35.3-7.1c12.4,0,24.2,2.4,35.1,7.1c10.8,4.7,20.5,11.2,28.7,19.4
				c8.2,8.2,14.7,17.8,19.4,28.7c4.7,10.9,7.1,22.8,7.1,35.2v92.1c0,12.4-2.4,24.3-7.1,35.3c-4.7,11-11.2,20.7-19.4,28.9
				c-8.2,8.2-17.8,14.7-28.7,19.4C-401.4,270.9-413.2,273.3-425.6,273.3z M-425.7,222c-5.4,0-10.6-1-15.4-3c-4.7-2-8.9-4.8-12.6-8.4
				c-3.6-3.6-6.4-7.8-8.5-12.5c-2-4.8-3.1-10-3.1-15.4V90.7c0-5.4,1-10.6,3.1-15.4c2-4.7,4.9-9,8.5-12.5c3.6-3.6,7.8-6.4,12.6-8.4
				c4.8-2,10-3,15.4-3c10.9,0,20.3,3.9,27.9,11.5c2.9,2.9,5.3,6,7.1,9.4c2.3,4.3,0.6,9.6-3.6,11.8c-4.3,2.3-9.6,0.6-11.8-3.6
				c-1-1.8-2.3-3.6-4-5.3c-4.3-4.3-9.4-6.4-15.6-6.4c-3.1,0-5.9,0.5-8.6,1.7c-2.7,1.1-5,2.7-7,4.7c-2,2-3.6,4.3-4.7,7
				c-1.1,2.6-1.7,5.4-1.7,8.5v91.9c0,3.1,0.5,5.9,1.7,8.5c1.1,2.7,2.7,5,4.7,7c2,2,4.3,3.6,7,4.7c2.6,1.1,5.4,1.7,8.6,1.7
				c6.2,0,11.3-2.1,15.6-6.4c4.3-4.3,6.4-9.4,6.4-15.5V153c0-4.8,3.9-8.8,8.8-8.8c4.8,0,8.8,3.9,8.8,8.8v29.7
				c0,10.9-3.9,20.3-11.5,27.9C-405.4,218.1-414.8,222-425.7,222z"/>
		</g>
	</g>
	<g display="inline">
		<g>
			<linearGradient id="SVGID_4_" gradientUnits="userSpaceOnUse" x1="-380.7432" y1="303.3966" x2="-252.2323" y2="181.4521">
				<stop  offset="0" style="stop-color:#9C7FB0"/>
				<stop  offset="1" style="stop-color:#797B92"/>
			</linearGradient>
			<path fill="url(#SVGID_4_)" d="M-149.3,273.3h-148.1c-4.8,0-8.8-3.9-8.8-8.8v-15.8c0-4.8,3.9-8.8,8.8-8.8c4.8,0,8.8,3.9,8.8,8.8
				v7.1h129.7c-4-19.3-21.2-33.8-41.6-33.8h-45.9c-4.8,0-8.8-3.9-8.8-8.8c0-9.2,2.7-17.2,8-23.8c4.6-5.8,10.5-11,17.4-15.5
				c6.4-4.2,13.4-8.2,20.7-11.9c6.8-3.4,13.1-7.1,18.8-10.9c4.3-3,8.4-6.4,12-10.2c3-3,5.5-6,7.7-9.2c2.8-4,8.2-4.9,12.2-2.2
				c4,2.8,4.9,8.2,2.2,12.2c-2.8,4.1-6,7.9-9.6,11.4c-4.3,4.5-9.3,8.8-14.8,12.5c-6.4,4.3-13.3,8.3-20.7,12
				c-6.8,3.4-13.2,7.1-19.1,11c-5.4,3.5-9.8,7.5-13.3,11.8c-1,1.3-1.9,2.6-2.5,4.1h35.5c33.1,0,60,26.9,60,60
				C-140.5,269.4-144.4,273.3-149.3,273.3z M-297.4,222.3c-4.8,0-8.8-3.9-8.8-8.8c0-13.8,3.1-27.5,9.3-40.5c0.1-0.1,0.1-0.3,0.2-0.4
				c3.7-6.8,7.9-13.1,12.5-18.6c4.6-5.5,9.8-10.5,15.5-14.9c5.4-4.3,11.3-8.2,17.3-11.8c5.8-3.4,11.8-6.8,17.9-10.2
				c4.5-2.5,8.9-4.9,13.2-7.3c3.1-1.7,5.6-4.1,7.8-7.2c2.3-3.6,3.5-7.5,3.5-11.9c0-6.2-2.1-11.3-6.4-15.6c-4.3-4.3-9.4-6.4-15.6-6.4
				c-4.9,0-9,1.3-12.7,4c-3.8,2.8-6.5,6.4-8.1,10.8c-1,2.8-3.4,4.9-6.4,5.5c-2.9,0.6-6-0.3-8.1-2.4l-15.7-15.9
				c-8.6-8.7-12.5-20.7-10.7-32.8c1.8-11.9,8.8-21.9,19.2-27.6c0,0,0.4-0.2,0.4-0.2c12.8-6.8,27-10.3,42.1-10.3
				c12.4,0,24.2,2.4,35.2,7.1c10.9,4.7,20.5,11.2,28.7,19.4c8.2,8.2,14.7,17.9,19.4,28.9c4.7,11.1,7.1,22.9,7.1,35.3
				c0,4.8-3.9,8.8-8.8,8.8c-4.8,0-8.8-3.9-8.8-8.8c0-10-1.9-19.5-5.7-28.4c-3.8-8.9-9.1-16.8-15.7-23.4
				c-6.6-6.6-14.4-11.9-23.3-15.7c-8.8-3.8-18.3-5.7-28.3-5.7c-12.2,0-23.6,2.8-33.8,8.2l-4.5-7.5l4.2,7.7c-5.6,3-9.3,8.4-10.2,14.7
				c-1,6.6,1.1,13.2,5.9,17.9l7.6,7.7c2.2-2.8,4.8-5.3,7.8-7.5c6.7-4.9,14.5-7.5,23.1-7.5c10.9,0,20.3,3.9,28,11.5
				c7.6,7.6,11.5,17,11.5,28c0,7.8-2.2,15.1-6.5,21.7c-3.8,5.6-8.4,9.8-13.9,12.8c-4.3,2.4-8.7,4.8-13.2,7.3
				c-6,3.3-11.9,6.7-17.5,10c-5.4,3.2-10.6,6.7-15.4,10.5c-4.7,3.7-9,7.8-12.9,12.4c-3.8,4.5-7.3,9.7-10.3,15.3
				c-5,10.6-7.5,21.7-7.5,32.8C-288.7,218.4-292.6,222.3-297.4,222.3z"/>
		</g>
	</g>
</g>
<g>
	<g>
		<g>
			<linearGradient id="SVGID_5_" gradientUnits="userSpaceOnUse" x1="-125.8492" y1="382.3978" x2="-43.3021" y2="288.5944">
				<stop  offset="0" style="stop-color:#9C7FB0"/>
				<stop  offset="1" style="stop-color:#797B92"/>
			</linearGradient>
			<path fill="url(#SVGID_5_)" d="M90.2,273.3c-12.4,0-24.2-2.4-35.1-7.1c-10.8-4.7-20.5-11.2-28.7-19.4
				c-8.2-8.2-14.7-17.8-19.4-28.7C2.4,207.1,0,195.3,0,182.9V90.8c0-12.4,2.4-24.3,7.1-35.3c4.7-11,11.2-20.7,19.4-28.9
				c8.2-8.2,17.8-14.7,28.7-19.4C66.1,2.4,77.9,0,90.2,0c12.4,0,24.2,2.4,35.3,7.1c6.6,2.8,12.8,6.3,18.3,10.4c0,0,0,0,0,0
				c1.5,1.1,2.9,2.2,4.3,3.3c3.7,3.1,4.2,8.6,1.2,12.3c-3.1,3.7-8.6,4.2-12.3,1.2c-1.1-0.9-2.3-1.8-3.4-2.7c0,0,0,0,0,0
				c-4.5-3.3-9.5-6.1-14.9-8.4c-8.9-3.8-18.4-5.7-28.4-5.7c-10,0-19.4,1.9-28.2,5.7c-8.8,3.8-16.6,9.1-23.2,15.7
				C32.3,45.5,27,53.4,23.2,62.3c-3.8,8.9-5.7,18.4-5.7,28.5v92.1c0,10,1.9,19.5,5.7,28.3c3.8,8.8,9.1,16.7,15.7,23.3
				c6.6,6.6,14.4,11.9,23.2,15.7c8.7,3.8,18.2,5.7,28.2,5.7c10,0,19.5-1.9,28.4-5.7c8.9-3.8,16.8-9.1,23.3-15.7
				c6.6-6.6,11.9-14.4,15.7-23.3c3.8-8.8,5.7-18.3,5.7-28.3V90.8c0-8.8-1.5-17.3-4.4-25.3c-1.7-4.5,0.6-9.6,5.2-11.3
				c4.5-1.7,9.6,0.6,11.3,5.2c3.7,9.9,5.5,20.4,5.5,31.3v92.1c0,12.4-2.4,24.2-7.1,35.2c-4.7,10.9-11.2,20.5-19.3,28.7
				c-8.2,8.2-17.9,14.7-28.9,19.4C114.5,270.9,102.6,273.3,90.2,273.3z M90.4,222c-10.9,0-20.3-3.9-27.9-11.5
				c-2.9-2.9-5.2-6-7.1-9.4c-2.3-4.3-0.7-9.6,3.6-11.8c4.3-2.3,9.6-0.7,11.8,3.6c1,1.9,2.3,3.6,4,5.3c4.3,4.3,9.4,6.4,15.6,6.4
				c3.1,0,5.9-0.5,8.6-1.7c2.7-1.1,5-2.7,7-4.7c2-2,3.6-4.3,4.7-7c1.1-2.6,1.7-5.4,1.7-8.5V90.7c0-3.1-0.5-5.9-1.7-8.5
				c-1.1-2.7-2.7-5-4.7-7c-2-2-4.3-3.6-7-4.7c-2.6-1.1-5.4-1.7-8.6-1.7c-6.2,0-11.3,2.1-15.6,6.4c-4.3,4.3-6.4,9.4-6.4,15.5v29.7
				c0,4.8-3.9,8.8-8.8,8.8c-4.8,0-8.8-3.9-8.8-8.8V90.7c0-10.9,3.9-20.3,11.5-27.9c7.6-7.6,17-11.5,27.9-11.5c5.4,0,10.6,1,15.4,3
				c4.7,2,8.9,4.8,12.6,8.4c3.6,3.6,6.4,7.8,8.5,12.5c2,4.8,3.1,10,3.1,15.4v91.9c0,5.4-1,10.6-3.1,15.4c-2,4.7-4.9,9-8.5,12.5
				c-3.6,3.6-7.8,6.4-12.6,8.4C101,221,95.8,222,90.4,222z"/>
		</g>
	</g>
	<g>
		<g>
			<linearGradient id="SVGID_6_" gradientUnits="userSpaceOnUse" x1="165.1913" y1="280.6994" x2="247.7384" y2="186.8959">
				<stop  offset="0" style="stop-color:#9C7FB0"/>
				<stop  offset="1" style="stop-color:#797B92"/>
			</linearGradient>
			<path fill="url(#SVGID_6_)" d="M288.4,273.3c-14.3,0-28.3-2.1-41.3-6.3c-13-4.2-25.2-10.2-36.2-17.9c-3.4-2.4-4.7-6.8-3.1-10.6
				l8.3-19.8c7.6-18.2,28.2-26.5,46.8-19c0,0,0.3,0.1,0.3,0.1c4.7,1.9,9.6,3.2,14.7,3.9c4.8,0.7,8.1,5.1,7.4,9.9
				c-0.7,4.8-5.2,8.1-9.9,7.4c-6.5-0.9-12.8-2.6-18.7-5c0,0-0.3-0.1-0.3-0.1c-9.6-3.9-20.2,0.3-24.1,9.6l-5.5,13.1
				c8,4.9,16.6,8.8,25.7,11.7c11.3,3.6,23.4,5.5,36,5.5c10,0,19.5-1.9,28.2-5.7c8.8-3.8,16.7-9.1,23.3-15.7
				c6.6-6.6,11.9-14.4,15.7-23.3c3.8-8.8,5.7-18.3,5.7-28.2c0-10.6-2-20.6-6-29.5c-4-9-9.6-16.9-16.6-23.5c-3.2-3-3.7-8-1-11.6
				c3.9-5.3,7-11.3,9.2-17.7c1.1-3.2,1.9-6.5,2.4-9.8c0.8-4.8,5.3-8,10.1-7.2c4.8,0.8,8,5.3,7.2,10.1c-0.7,4.3-1.8,8.5-3.1,12.6
				c-1.9,5.7-4.5,11.2-7.5,16.2c6.3,7,11.4,15,15.3,23.8c5,11.2,7.5,23.5,7.5,36.6c0,12.4-2.4,24.2-7.1,35.2
				c-4.7,10.9-11.2,20.5-19.4,28.7c-8.2,8.2-17.8,14.7-28.7,19.4C312.6,270.9,300.8,273.3,288.4,273.3z M310.2,213.1
				c-2.2,0-4.5-0.9-6.2-2.6c-3.4-3.4-3.4-9,0-12.4c4.3-4.3,6.4-9.3,6.4-15.4c0-3.1-0.5-5.9-1.7-8.5c-1.1-2.7-2.7-4.9-4.7-7
				c-2-2-4.3-3.6-7-4.7c-2.7-1.1-5.5-1.7-8.6-1.7h-10.1c-4.8,0-8.8-3.9-8.8-8.8v-51.3c0-4.8,3.9-8.8,8.8-8.8h9.9
				c3.1-0.2,5.5-1.3,7.8-3.6c2.2-2.3,3.3-4.8,3.3-7.9c0-3.5-1.1-6.2-3.3-8.5c-2.1-2.1-4.6-3.2-7.8-3.3c-3.3-0.1-6.7,1.1-9,3.4
				c-2.3,2.3-3.4,4.9-3.4,8.4c0,3.5-2.1,6.7-5.4,8.1c-3.3,1.4-7.1,0.6-9.6-1.9l-19.8-19.9c-8-8.1-11.7-19.1-10.2-30.4
				c1.5-11.3,8.1-20.9,18-26.5C260.3,3.3,273.3,0,287.4,0c11,0,21.6,2.1,31.3,6.3c9.6,4.1,18.2,9.9,25.5,17.2
				c4.7,4.8,8.9,10.1,12.3,15.9c2.5,4.2,1.1,9.5-3.1,12c-4.2,2.4-9.5,1.1-12-3.1c-2.7-4.5-5.9-8.7-9.6-12.4
				c-5.7-5.7-12.4-10.2-20-13.5c-7.5-3.2-15.7-4.9-24.4-4.9c-11,0-21.1,2.6-30.1,7.6c-5.1,2.9-8.5,7.9-9.3,13.7
				c-0.8,5.8,1.1,11.5,5.2,15.7l9.7,9.7c1.1-1.6,2.4-3.2,3.9-4.6c5.8-5.6,13.7-8.7,21.9-8.4c7.7,0.3,14.2,3.1,19.6,8.4
				c5.5,5.6,8.5,12.8,8.5,20.9c0,7.6-2.8,14.6-8.2,20.1c-5.4,5.6-12.1,8.6-19.8,8.9c-0.1,0-0.2,0-0.4,0H287v33.8h1.4
				c5.4,0,10.6,1,15.4,3c4.7,2,8.9,4.8,12.5,8.4c3.6,3.6,6.4,7.8,8.5,12.5c2,4.8,3.1,9.9,3.1,15.3c0,10.9-3.9,20.3-11.5,27.9
				C314.6,212.3,312.4,213.1,310.2,213.1z"/>
		</g>
	</g>
</g>
</svg>
