<svg width="24" height="24" viewBox="0 0 24 24" fill="none" xmlns="http://www.w3.org/2000/svg">
<path d="M18.437 20.937H5.56299C4.89995 20.937 4.26406 20.6736 3.79522 20.2048C3.32638 19.7359 3.06299 19.1 3.06299 18.437V5.56299C3.06299 4.89995 3.32638 4.26406 3.79522 3.79522C4.26406 3.32638 4.89995 3.06299 5.56299 3.06299H18.437C19.1 3.06299 19.7359 3.32638 20.2048 3.79522C20.6736 4.26406 20.937 4.89995 20.937 5.56299V18.437C20.937 19.1 20.6736 19.7359 20.2048 20.2048C19.7359 20.6736 19.1 20.937 18.437 20.937ZM5.56299 4.06299C5.16516 4.06299 4.78363 4.22102 4.50233 4.50233C4.22102 4.78363 4.06299 5.16516 4.06299 5.56299V18.437C4.06299 18.8348 4.22102 19.2163 4.50233 19.4976C4.78363 19.779 5.16516 19.937 5.56299 19.937H18.437C18.8348 19.937 19.2163 19.779 19.4976 19.4976C19.779 19.2163 19.937 18.8348 19.937 18.437V5.56299C19.937 5.16516 19.779 4.78363 19.4976 4.50233C19.2163 4.22102 18.8348 4.06299 18.437 4.06299H5.56299Z" fill="#5E5E5E"/>
<path d="M12 16.594C11.0913 16.593 10.2034 16.3226 9.44839 15.8171C8.69338 15.3115 8.10521 14.5935 7.75822 13.7537C7.41123 12.914 7.32101 11.9902 7.49895 11.0991C7.6769 10.2081 8.11502 9.3898 8.75794 8.74772C9.40086 8.10564 10.2197 7.66858 11.111 7.4918C12.0023 7.31502 12.9259 7.40645 13.7653 7.75453C14.6046 8.10262 15.3218 8.69173 15.8264 9.44739C16.331 10.2031 16.6002 11.0914 16.6 12C16.5984 13.2189 16.113 14.3874 15.2505 15.2488C14.3881 16.1102 13.2189 16.594 12 16.594ZM12 8.39999C11.2894 8.40098 10.595 8.61254 10.0046 9.00794C9.41416 9.40334 8.95415 9.96486 8.68268 10.6216C8.4112 11.2782 8.34043 12.0007 8.4793 12.6976C8.61817 13.3945 8.96046 14.0346 9.46293 14.537C9.9654 15.0395 10.6055 15.3818 11.3024 15.5207C11.9993 15.6595 12.7217 15.5888 13.3784 15.3173C14.0351 15.0458 14.5966 14.5858 14.992 13.9954C15.3874 13.405 15.599 12.7106 15.6 12C15.6 11.0452 15.2207 10.1295 14.5456 9.45441C13.8704 8.77928 12.9548 8.39999 12 8.39999Z" fill="#5E5E5E"/>
<path d="M17.2 7.905C17.7937 7.905 18.275 7.42371 18.275 6.83C18.275 6.2363 17.7937 5.755 17.2 5.755C16.6063 5.755 16.125 6.2363 16.125 6.83C16.125 7.42371 16.6063 7.905 17.2 7.905Z" fill="#5E5E5E"/>
</svg>
